# xmcd CD database file
#
# Track frame offsets:
#	150
#	38172
#	75223
#	106380
#	141200
#	156484
#	183981
#	210581
#	240542
#	273588
#
# Disc length: 3818 seconds
#
# Revision: 0
# Processed by: cddbd v1.5.2PL0 Copyright (c) Steve Scherf et al.
# Submitted via: CDex 2.00
#
DISCID=820ee80a
DTITLE=Yuri Goloubev - Titanic For A Bike
DYEAR=2011
DGENRE=Jazz
TTITLE0=Sailing
TTITLE1=Philosophy
TTITLE2=Well Seasoned Waltz
TTITLE3=How We Were
TTITLE4=Titanic
TTITLE5=Love Stories
TTITLE6=Elmau Revisited
TTITLE7=Bill Gates Among Us
TTITLE8=Bagatelle #2
TTITLE9=Don't Blame Me
EXTD=YEAR: 2011
EXTT0=
EXTT1=
EXTT2=
EXTT3=
EXTT4=
EXTT5=
EXTT6=
EXTT7=
EXTT8=
EXTT9=
PLAYORDER=
